<svg xmlns="http://www.w3.org/2000/svg" viewBox="0 0 1200 800" fill="none" stroke="#ffffff" stroke-width="0.5">
  <!-- Circular nodes -->
  <circle cx="100" cy="100" r="2" fill="#ffffff"/>
  <circle cx="300" cy="80" r="2" fill="#ffffff"/>
  <circle cx="500" cy="120" r="2" fill="#ffffff"/>
  <circle cx="700" cy="90" r="2" fill="#ffffff"/>
  <circle cx="900" cy="110" r="2" fill="#ffffff"/>
  <circle cx="1100" cy="100" r="2" fill="#ffffff"/>
  <circle cx="150" cy="250" r="2" fill="#ffffff"/>
  <circle cx="350" cy="280" r="2" fill="#ffffff"/>
  <circle cx="550" cy="240" r="2" fill="#ffffff"/>
  <circle cx="750" cy="260" r="2" fill="#ffffff"/>
  <circle cx="950" cy="270" r="2" fill="#ffffff"/>
  <circle cx="1050" cy="250" r="2" fill="#ffffff"/>
  <circle cx="80" cy="420" r="2" fill="#ffffff"/>
  <circle cx="250" cy="400" r="2" fill="#ffffff"/>
  <circle cx="450" cy="430" r="2" fill="#ffffff"/>
  <circle cx="650" cy="410" r="2" fill="#ffffff"/>
  <circle cx="850" cy="420" r="2" fill="#ffffff"/>
  <circle cx="1120" cy="400" r="2" fill="#ffffff"/>
  <circle cx="200" cy="580" r="2" fill="#ffffff"/>
  <circle cx="400" cy="560" r="2" fill="#ffffff"/>
  <circle cx="600" cy="600" r="2" fill="#ffffff"/>
  <circle cx="800" cy="580" r="2" fill="#ffffff"/>
  <circle cx="1000" cy="550" r="2" fill="#ffffff"/>
  <circle cx="100" cy="700" r="2" fill="#ffffff"/>
  <circle cx="600" cy="720" r="2" fill="#ffffff"/>
  <circle cx="1100" cy="700" r="2" fill="#ffffff"/>
  <!-- Connecting lines -->
  <line x1="100" y1="100" x2="300" y2="80"/>
  <line x1="300" y1="80" x2="500" y2="120"/>
  <line x1="500" y1="120" x2="700" y2="90"/>
  <line x1="700" y1="90" x2="900" y2="110"/>
  <line x1="900" y1="110" x2="1100" y2="100"/>
  <line x1="100" y1="100" x2="150" y2="250"/>
  <line x1="300" y1="80" x2="350" y2="280"/>
  <line x1="500" y1="120" x2="550" y2="240"/>
  <line x1="700" y1="90" x2="750" y2="260"/>
  <line x1="900" y1="110" x2="950" y2="270"/>
  <line x1="150" y1="250" x2="350" y2="280"/>
  <line x1="350" y1="280" x2="550" y2="240"/>
  <line x1="550" y1="240" x2="750" y2="260"/>
  <line x1="750" y1="260" x2="950" y2="270"/>
  <line x1="150" y1="250" x2="80" y2="420"/>
  <line x1="350" y1="280" x2="250" y2="400"/>
  <line x1="550" y1="240" x2="450" y2="430"/>
  <line x1="750" y1="260" x2="650" y2="410"/>
  <line x1="950" y1="270" x2="850" y2="420"/>
  <line x1="1050" y1="250" x2="1120" y2="400"/>
  <line x1="80" y1="420" x2="250" y2="400"/>
  <line x1="250" y1="400" x2="450" y2="430"/>
  <line x1="450" y1="430" x2="650" y2="410"/>
  <line x1="650" y1="410" x2="850" y2="420"/>
  <line x1="850" y1="420" x2="1120" y2="400"/>
  <line x1="80" y1="420" x2="200" y2="580"/>
  <line x1="250" y1="400" x2="400" y2="560"/>
  <line x1="450" y1="430" x2="600" y2="600"/>
  <line x1="650" y1="410" x2="800" y2="580"/>
  <line x1="850" y1="420" x2="1000" y2="550"/>
  <line x1="1120" y1="400" x2="1000" y2="550"/>
  <line x1="200" y1="580" x2="400" y2="560"/>
  <line x1="400" y1="560" x2="600" y2="600"/>
  <line x1="600" y1="600" x2="800" y2="580"/>
  <line x1="800" y1="580" x2="1000" y2="550"/>
  <line x1="100" y1="700" x2="200" y2="580"/>
  <line x1="600" y1="720" x2="600" y2="600"/>
  <line x1="1100" y1="700" x2="1000" y2="550"/>
</svg>
